<?xml version="1.0" encoding="UTF-8" standalone="no"?>
<!DOCTYPE svg PUBLIC "-//W3C//DTD SVG 1.1//EN" "http://www.w3.org/Graphics/SVG/1.1/DTD/svg11.dtd">
<svg width="100%" height="100%" viewBox="0 0 398 398" version="1.1" xmlns="http://www.w3.org/2000/svg" xmlns:xlink="http://www.w3.org/1999/xlink" xml:space="preserve" xmlns:serif="http://www.serif.com/" style="fill-rule:evenodd;clip-rule:evenodd;stroke-linejoin:round;stroke-miterlimit:1.41421;">
    <g>
        <path d="M346.303,78.039L152.233,78.039L152.233,65.725C152.233,55.379 143.817,46.961 133.472,46.961L18.761,46.961C8.416,46.961 0,55.379 0,65.725L0,299.346C0,327.418 22.84,350.254 50.914,350.254L346.303,350.254C374.375,350.254 397.215,327.418 397.215,299.346L397.215,128.947C397.215,100.873 374.377,78.039 346.303,78.039ZM127.568,71.625L127.568,90.371C127.568,97.182 133.09,102.703 139.901,102.703L346.303,102.703C358.149,102.703 368.069,110.641 371.321,121.437L24.665,121.437L24.665,71.625L127.568,71.625ZM346.303,325.588L50.914,325.588C36.441,325.588 24.665,313.815 24.665,299.346L24.665,146.103L372.549,146.103L372.549,299.346C372.549,313.814 360.775,325.588 346.303,325.588Z" style="fill:rgb(148,148,148);fill-rule:nonzero;"/>
        <path d="M129.203,235.074L104.535,235.074L104.535,210.41C104.535,203.599 99.014,198.076 92.202,198.076C85.391,198.076 79.869,203.6 79.869,210.41L79.869,235.074L55.201,235.074C48.39,235.074 42.868,240.595 42.868,247.406C42.868,254.217 48.39,259.74 55.201,259.74L79.869,259.74L79.869,284.41C79.869,291.221 85.391,296.744 92.202,296.744C99.013,296.744 104.535,291.221 104.535,284.41L104.535,259.74L129.203,259.74C136.014,259.74 141.536,254.219 141.536,247.406C141.536,240.595 136.014,235.074 129.203,235.074Z" style="fill:rgb(154,154,154);fill-rule:nonzero;"/>
    </g>
</svg>
