<?xml version="1.0" encoding="UTF-8" standalone="no"?>
<!DOCTYPE svg PUBLIC "-//W3C//DTD SVG 1.1//EN" "http://www.w3.org/Graphics/SVG/1.1/DTD/svg11.dtd">
<svg width="100%" height="100%" viewBox="0 0 1024 1024" version="1.1" xmlns="http://www.w3.org/2000/svg" xmlns:xlink="http://www.w3.org/1999/xlink" xml:space="preserve" xmlns:serif="http://www.serif.com/" style="fill-rule:evenodd;clip-rule:evenodd;stroke-linecap:round;stroke-linejoin:round;stroke-miterlimit:1.5;">
    <g transform="matrix(1,0,0,1,-11.0146,4.28347)">
        <path d="M887.679,577.321L283.488,931.428L70.602,416.372L674.793,62.264L887.679,577.321Z" style="fill:rgb(180,180,180);stroke:black;stroke-width:5px;"/>
    </g>
    <g transform="matrix(0.569393,-0.130642,0.130642,0.569393,142.356,128.395)">
        <g>
            <path d="M159.971,64.446L722.956,64.446L864.029,205.596L864.029,959.554L159.971,959.554L159.971,64.446Z" style="fill:rgb(232,232,232);stroke:black;stroke-width:8.56px;"/>
            <path d="M190.212,94.492L752.985,94.492L833.788,175.339L833.788,929.508L190.212,929.508L190.212,94.492Z" style="fill:rgb(206,206,206);stroke:black;stroke-width:8.56px;"/>
        </g>
        <g transform="matrix(1,0,0,1,-0.707002,1.13834)">
            <path d="M720.548,62.036L863.974,205.542L720.548,205.542L720.548,62.036Z" style="fill:rgb(232,232,232);stroke:black;stroke-width:8.56px;"/>
        </g>
    </g>
    <g transform="matrix(0.528385,-0.32387,0.321092,0.523853,-65.8937,383.88)">
        <g>
            <path d="M159.971,64.446L722.956,64.446L864.029,205.596L864.029,959.554L159.971,959.554L159.971,64.446Z" style="fill:rgb(232,232,232);stroke:black;stroke-width:8.1px;"/>
            <path d="M190.212,94.492L752.985,94.492L833.788,175.339L833.788,929.508L190.212,929.508L190.212,94.492Z" style="fill:rgb(206,206,206);stroke:black;stroke-width:8.1px;"/>
        </g>
        <g transform="matrix(1,0,0,1,-0.707002,1.13834)">
            <path d="M720.548,62.036L863.974,205.542L720.548,205.542L720.548,62.036Z" style="fill:rgb(232,232,232);stroke:black;stroke-width:8.1px;"/>
        </g>
    </g>
    <path d="M885.376,578.671L273.323,937.386L273.323,406.978L885.376,48.262L885.376,578.671Z" style="fill:rgb(215,215,215);stroke:black;stroke-width:5px;"/>
</svg>
