<?xml version="1.0" encoding="UTF-8" standalone="no"?>
<!DOCTYPE svg PUBLIC "-//W3C//DTD SVG 1.1//EN" "http://www.w3.org/Graphics/SVG/1.1/DTD/svg11.dtd">
<svg width="100%" height="100%" viewBox="0 0 512 512" version="1.1" xmlns="http://www.w3.org/2000/svg" xmlns:xlink="http://www.w3.org/1999/xlink" xml:space="preserve" xmlns:serif="http://www.serif.com/" style="fill-rule:evenodd;clip-rule:evenodd;stroke-linejoin:round;stroke-miterlimit:1.41421;">
    <path d="M353.613,133.606C314.286,66.796 275.623,11.662 273.995,9.348C269.876,3.487 263.163,0 256.001,0C248.838,0 242.126,3.487 238.007,9.347C236.381,11.661 197.716,66.795 158.389,133.605C103.415,226.999 76.69,292.12 76.69,332.691C76.69,431.563 157.128,512 256.001,512C354.874,512 435.31,431.563 435.31,332.691C435.31,292.12 408.587,226.997 353.613,133.606ZM256.001,468.012C181.385,468.012 120.678,407.307 120.678,332.691C120.678,275.033 206.371,135.055 256.002,60.929C305.632,135.04 391.322,274.995 391.322,332.691C391.322,407.308 330.617,468.012 256.001,468.012Z" style="fill:rgb(154,154,154);fill-rule:nonzero;"/>
    <path d="M200.752,381.408C188.893,367.978 182.343,350.753 182.298,332.879C182.379,331.763 183.799,316.238 201.956,276.421C206.996,265.368 202.122,252.323 191.069,247.283C180.019,242.244 166.971,247.117 161.933,258.17C140.611,304.928 138.31,325.861 138.31,332.691C138.31,361.364 148.776,389.004 167.779,410.524C172.126,415.446 178.185,417.959 184.274,417.959C189.447,417.959 194.64,416.145 198.824,412.45C207.929,404.412 208.792,390.513 200.752,381.408Z" style="fill:rgb(154,154,154);fill-rule:nonzero;"/>
</svg>
