<?xml version="1.0" encoding="UTF-8" standalone="no"?>
<!DOCTYPE svg PUBLIC "-//W3C//DTD SVG 1.1//EN" "http://www.w3.org/Graphics/SVG/1.1/DTD/svg11.dtd">
<svg width="100%" height="100%" viewBox="0 0 398 398" version="1.1" xmlns="http://www.w3.org/2000/svg" xmlns:xlink="http://www.w3.org/1999/xlink" xml:space="preserve" xmlns:serif="http://www.serif.com/" style="fill-rule:evenodd;clip-rule:evenodd;stroke-linejoin:round;stroke-miterlimit:1.41421;">
    <path d="M346.303,78.039L152.233,78.039L152.233,65.725C152.233,55.379 143.817,46.961 133.472,46.961L18.761,46.961C8.416,46.961 0,55.379 0,65.725L0,299.346C0,327.418 22.84,350.254 50.914,350.254L346.303,350.254C374.375,350.254 397.215,327.418 397.215,299.346L397.215,128.947C397.215,100.873 374.377,78.039 346.303,78.039ZM127.568,71.625L127.568,90.371C127.568,97.182 133.09,102.703 139.901,102.703L346.303,102.703C358.149,102.703 368.069,110.641 371.321,121.437L24.665,121.437L24.665,71.625L127.568,71.625ZM346.303,325.588L50.914,325.588C36.441,325.588 24.665,313.815 24.665,299.346L24.665,146.103L372.549,146.103L372.549,299.346C372.549,313.814 360.775,325.588 346.303,325.588Z" style="fill:rgb(148,148,148);fill-rule:nonzero;"/>
    <g transform="matrix(0.299983,0,0,0.299983,28.0612,157.349)">
        <path d="M344.816,62.694L344.816,0L167.184,0L167.184,62.694L62.694,62.694L62.694,177.633L83.592,177.633L83.592,512L428.408,512L428.408,177.633L449.306,177.633L449.306,62.694L344.816,62.694ZM198.531,31.347L313.47,31.347L313.47,62.694L198.531,62.694L198.531,31.347ZM188.082,480.653L114.939,480.653L114.939,177.633L188.082,177.633L188.082,480.653ZM292.571,480.653L219.428,480.653L219.428,177.633L292.571,177.633L292.571,480.653ZM397.061,480.653L323.918,480.653L323.918,177.633L397.061,177.633L397.061,480.653ZM417.959,146.286L94.041,146.286L94.041,94.041L417.959,94.041L417.959,146.286Z" style="fill:rgb(154,154,154);fill-rule:nonzero;"/>
    </g>
</svg>
